<?xml version="1.0" standalone="no"?>
<!DOCTYPE svg PUBLIC "-//W3C//DTD SVG 20010904//EN"
 "http://www.w3.org/TR/2001/REC-SVG-20010904/DTD/svg10.dtd">
<svg version="1.0" xmlns="http://www.w3.org/2000/svg"
 width="700.000000pt" height="700.000000pt" viewBox="0 0 2000.000000 1200.000000"
 preserveAspectRatio="xMidYMid meet">

<g transform="translate(0.000000,1080.000000) scale(0.100000,-0.100000)"
fill="#000000" stroke="none">
<path d="M4485 7254 c-16 -2 -79 -9 -140 -15 -237 -23 -496 -82 -750 -170
-538 -186 -1002 -475 -1400 -874 -524 -524 -832 -1111 -942 -1797 -21 -130
-24 -477 -5 -593 64 -387 220 -715 462 -968 174 -182 316 -285 555 -402 218
-107 400 -164 668 -208 132 -21 133 -21 2247 -25 1498 -2 2151 0 2240 8 577
51 1117 324 1483 750 231 269 370 549 444 899 24 111 27 149 27 316 1 200 -5
249 -51 390 -86 267 -268 476 -533 610 -200 100 -413 144 -701 145 -147 0
-224 12 -297 47 -77 36 -155 118 -182 190 -45 119 -18 322 63 478 50 96 162
201 277 258 163 81 160 80 632 85 l417 3 139 142 c77 78 195 203 263 278 68
75 189 205 268 290 l144 154 -679 3 c-431 2 -721 -1 -794 -8 -236 -22 -519
-97 -718 -190 -531 -249 -942 -896 -942 -1484 0 -432 229 -786 610 -943 141
-59 406 -113 553 -113 157 0 305 -41 419 -116 81 -54 138 -120 181 -210 31
-67 32 -72 32 -204 -1 -121 -4 -144 -29 -220 -16 -47 -42 -112 -58 -145 -123
-244 -369 -430 -687 -518 -75 -20 -92 -20 -2106 -29 -1419 -6 -2064 -5 -2144
2 -538 50 -952 318 -1117 723 -111 274 -123 573 -35 918 215 850 950 1512
1847 1666 87 15 221 18 1122 22 l1023 6 77 87 c42 47 194 211 337 364 143 152
286 305 318 340 l59 64 -1284 -1 c-706 -1 -1296 -4 -1313 -5z"/>
</g>
</svg>
